<svg width="0" height="0" class="hidden">
	<symbol viewBox="0 0 68 101" xmlns="http://www.w3.org/2000/svg" shape-rendering="geometricPrecision" fill-rule="evenodd" clip-rule="evenodd" id="bulb">
		<path d="M67.992,33.862 C67.992,15.156 52.774,-0.008 34.002,-0.008 C15.230,-0.008 0.012,15.156 0.012,33.862 C0.012,44.533 4.977,54.037 12.716,60.245 L12.716,85.733 L18.052,85.733 C18.256,94.197 25.191,100.999 33.733,100.999 C42.275,100.999 49.210,94.197 49.414,85.733 L55.290,85.733 L55.290,60.244 C63.028,54.036 67.992,44.532 67.992,33.862 ZM34.002,64.864 C37.744,64.864 41.076,64.871 44.526,64.875 L44.526,74.986 L23.480,74.986 L23.480,64.866 C27.002,64.866 30.230,64.864 34.002,64.864 ZM33.733,90.273 C31.140,90.273 29.009,88.268 28.813,85.733 L38.653,85.733 C38.457,88.268 36.326,90.273 33.733,90.273 ZM45.227,54.129 L39.176,54.129 L39.366,40.864 C41.562,42.096 42.597,43.727 42.739,43.968 L52.225,38.896 C50.212,35.157 44.117,28.862 34.003,28.749 L34.003,28.739 C33.957,28.739 33.914,28.744 33.869,28.744 C33.823,28.744 33.780,28.739 33.734,28.739 L33.734,28.749 C23.618,28.862 17.523,35.157 15.510,38.896 L24.996,43.968 C25.011,43.939 26.114,42.080 28.601,40.760 L28.410,54.129 L22.775,54.129 C15.425,50.080 10.777,42.335 10.777,33.862 C10.777,21.101 21.196,10.718 34.002,10.718 C46.809,10.718 57.227,21.101 57.227,33.862 C57.227,42.337 52.579,50.080 45.227,54.129 Z"
			 fill-rule="nonzero"/>
	</symbol>

	<symbol viewBox="0 0 36 36" xmlns="http://www.w3.org/2000/svg" shape-rendering="geometricPrecision" fill-rule="evenodd" clip-rule="evenodd" id="clock">
		<path fill-rule="nonzero" d="M18.003,36.010 C8.081,36.010 0.008,27.932 0.008,18.003 C0.008,8.074 8.081,-0.004 18.003,-0.004 C27.925,-0.004 35.998,8.074 35.998,18.003 C35.998,27.932 27.925,36.010 18.003,36.010 ZM19.984,4.117 L19.984,6.649 C19.984,7.744 19.097,8.632 18.003,8.632 C16.909,8.632 16.022,7.744 16.022,6.649 L16.022,4.117 C9.871,4.993 5.002,9.865 4.127,16.020 L6.657,16.020 C7.751,16.020 8.638,16.908 8.638,18.003 C8.638,19.098 7.751,19.986 6.657,19.986 L4.127,19.986 C5.002,26.141 9.871,31.012 16.022,31.888 L16.022,29.357 C16.022,28.261 16.909,27.374 18.003,27.374 C19.097,27.374 19.984,28.261 19.984,29.357 L19.984,31.888 C26.135,31.012 31.004,26.141 31.879,19.986 L29.349,19.986 C28.255,19.986 27.368,19.098 27.368,18.003 C27.368,16.908 28.255,16.020 29.349,16.020 L31.879,16.020 C31.004,9.865 26.135,4.993 19.984,4.117 ZM24.497,16.590 L17.824,20.385 L9.020,13.451 C8.161,12.773 8.012,11.527 8.688,10.667 C9.365,9.807 10.611,9.658 11.470,10.335 L18.182,15.621 L22.539,13.143 C23.489,12.602 24.699,12.935 25.241,13.887 C25.781,14.839 25.448,16.049 24.497,16.590 Z"/>
	</symbol>

	<symbol viewBox="0 0 36 36" xmlns="http://www.w3.org/2000/svg" shape-rendering="geometricPrecision" fill-rule="evenodd" clip-rule="evenodd" id="gear">
		<path fill-rule="nonzero" d="M32.585,18.001 C32.585,18.121 32.583,18.242 32.580,18.365 L36.005,21.455 L35.695,22.639 C35.271,24.255 34.632,25.798 33.795,27.226 L33.176,28.283 L28.567,28.048 C28.400,28.223 28.227,28.395 28.051,28.563 L28.286,33.169 L27.230,33.787 C25.801,34.622 24.257,35.261 22.640,35.685 L21.455,35.995 L18.362,32.573 C18.118,32.578 17.878,32.578 17.634,32.573 L14.542,35.995 L13.357,35.685 C11.741,35.262 10.197,34.624 8.767,33.787 L7.710,33.169 L7.945,28.561 C7.769,28.394 7.597,28.223 7.430,28.048 L2.820,28.283 L2.202,27.226 C1.365,25.799 0.726,24.256 0.302,22.641 L-0.009,21.455 L3.417,18.365 C3.413,18.242 3.412,18.121 3.412,18.001 C3.412,17.881 3.413,17.760 3.417,17.637 L-0.009,14.547 L0.302,13.361 C0.726,11.745 1.365,10.202 2.202,8.776 L2.820,7.719 L7.430,7.954 C7.597,7.778 7.769,7.607 7.945,7.440 L7.710,2.833 L8.767,2.215 C10.197,1.378 11.741,0.739 13.357,0.317 L14.542,0.006 L17.634,3.429 C17.878,3.423 18.118,3.423 18.362,3.429 L21.455,0.006 L22.640,0.317 C24.257,0.740 25.801,1.379 27.230,2.215 L28.286,2.833 L28.051,7.439 C28.227,7.606 28.400,7.778 28.567,7.954 L33.176,7.719 L33.795,8.776 C34.632,10.204 35.271,11.746 35.695,13.363 L36.005,14.547 L32.580,17.637 C32.583,17.760 32.585,17.881 32.585,18.001 ZM28.501,19.019 C28.537,18.653 28.553,18.321 28.553,18.001 C28.553,17.681 28.537,17.348 28.501,16.982 L28.406,15.975 L31.442,13.236 C31.277,12.770 31.089,12.314 30.877,11.871 L26.793,12.080 L26.147,11.296 C25.715,10.772 25.231,10.288 24.707,9.858 L23.924,9.213 L24.132,5.130 C23.688,4.919 23.232,4.730 22.767,4.567 L20.025,7.600 L19.017,7.504 C18.285,7.434 17.711,7.434 16.979,7.504 L15.971,7.600 L13.230,4.567 C12.764,4.730 12.308,4.919 11.864,5.130 L12.072,9.212 L11.290,9.857 C10.766,10.288 10.281,10.773 9.850,11.296 L9.204,12.080 L5.120,11.871 C4.908,12.314 4.720,12.770 4.554,13.236 L7.591,15.974 L7.495,16.982 C7.460,17.348 7.443,17.681 7.443,18.001 C7.443,18.321 7.460,18.653 7.495,19.019 L7.591,20.027 L4.554,22.766 C4.720,23.232 4.908,23.687 5.120,24.131 L9.204,23.921 L9.850,24.705 C10.281,25.228 10.766,25.713 11.290,26.144 L12.072,26.789 L11.864,30.871 C12.308,31.083 12.764,31.270 13.230,31.435 L15.971,28.401 L16.979,28.497 C17.711,28.568 18.285,28.568 19.017,28.497 L20.025,28.401 L22.767,31.435 C23.232,31.270 23.688,31.083 24.132,30.872 L23.924,26.788 L24.707,26.144 C25.231,25.713 25.715,25.229 26.147,24.705 L26.793,23.921 L30.877,24.131 C31.089,23.687 31.277,23.232 31.442,22.766 L28.406,20.027 L28.501,19.019 ZM17.998,25.725 C13.736,25.725 10.269,22.261 10.269,18.001 C10.269,13.742 13.736,10.276 17.998,10.276 C22.260,10.276 25.728,13.742 25.728,18.001 C25.728,22.261 22.260,25.725 17.998,25.725 ZM17.998,14.305 C15.959,14.305 14.300,15.962 14.300,18.001 C14.300,20.039 15.959,21.696 17.998,21.696 C20.037,21.696 21.696,20.039 21.696,18.001 C21.696,15.962 20.037,14.305 17.998,14.305 Z"/>
	</symbol>

	<symbol viewBox="0 0 28 36" xmlns="http://www.w3.org/2000/svg" shape-rendering="geometricPrecision" fill-rule="evenodd" clip-rule="evenodd" id="location">
		<path fill-rule="nonzero" d="M14.000,35.988 C14.000,35.988 -0.001,27.092 -0.001,14.136 C-0.001,6.333 6.268,0.007 14.000,0.007 C21.732,0.007 28.000,6.333 28.000,14.136 C28.000,27.092 14.000,35.988 14.000,35.988 ZM14.000,3.824 C8.365,3.824 3.781,8.450 3.781,14.136 C3.781,22.081 10.523,28.493 14.000,31.271 C17.474,28.495 24.218,22.082 24.218,14.136 C24.218,8.450 19.634,3.824 14.000,3.824 ZM6.137,14.096 C6.137,9.721 9.664,6.161 13.999,6.161 C18.335,6.161 21.862,9.721 21.862,14.096 C21.862,18.471 18.335,22.031 13.999,22.031 C9.664,22.031 6.137,18.471 6.137,14.096 ZM18.080,14.096 C18.080,11.825 16.250,9.978 13.999,9.978 C11.750,9.978 9.919,11.825 9.919,14.096 C9.919,16.367 11.750,18.215 13.999,18.215 C16.250,18.215 18.080,16.367 18.080,14.096 Z"/>
	</symbol>

	<symbol viewBox="0 0 36 23" xmlns="http://www.w3.org/2000/svg" shape-rendering="geometricPrecision" fill-rule="evenodd" clip-rule="evenodd" id="speed">
		<path fill-rule="nonzero" d="M18.003,0.009 C8.081,0.009 0.009,8.242 0.009,18.359 C0.009,19.372 0.381,20.283 1.085,20.995 C3.152,23.086 7.702,23.047 14.588,22.990 C16.789,22.972 19.217,22.972 21.418,22.990 C22.495,22.999 23.513,23.008 24.474,23.008 C29.666,23.008 33.177,22.760 34.921,20.995 C35.626,20.283 35.998,19.372 35.998,18.359 C35.998,8.242 27.925,0.009 18.003,0.009 ZM21.451,18.950 C21.259,18.948 21.060,18.947 20.866,18.946 L22.893,13.484 C23.281,12.441 22.765,11.275 21.742,10.880 C20.722,10.487 19.575,11.009 19.188,12.054 L16.634,18.936 C15.928,18.940 15.232,18.945 14.556,18.950 C10.559,18.985 5.130,19.029 3.971,18.207 C3.997,15.727 4.648,13.399 5.765,11.373 L7.743,13.389 C8.130,13.784 8.637,13.981 9.144,13.981 C9.651,13.981 10.157,13.784 10.544,13.389 C11.318,12.601 11.318,11.322 10.544,10.532 L8.196,8.139 C10.281,6.059 12.999,4.648 16.022,4.209 L16.022,6.789 C16.022,7.905 16.909,8.810 18.003,8.810 C19.097,8.810 19.984,7.905 19.984,6.789 L19.984,4.209 C23.007,4.648 25.726,6.059 27.811,8.139 L25.463,10.532 C24.689,11.322 24.689,12.601 25.463,13.389 C25.850,13.784 26.357,13.981 26.864,13.981 C27.371,13.981 27.877,13.784 28.264,13.389 L30.242,11.373 C31.359,13.399 32.010,15.727 32.035,18.207 C30.877,19.029 25.451,18.985 21.451,18.950 Z"/>
	</symbol>

	<symbol viewBox="0 0 93 67" xmlns="http://www.w3.org/2000/svg" shape-rendering="geometricPrecision" fill-rule="evenodd" clip-rule="evenodd" id="graduate">
		<path fill-rule="nonzero" d="M86.597,42.717 L86.597,20.399 L92.152,18.324 L45.479,0.895 L0.749,18.324 L17.468,24.838 L17.468,41.237 L45.482,52.201 L74.445,41.271 L74.445,24.936 L79.100,23.198 L79.100,42.747 C75.811,44.199 73.508,47.479 73.508,51.290 L73.508,66.906 L92.250,66.906 L92.250,51.290 C92.250,47.455 89.919,44.155 86.597,42.717 ZM45.535,8.899 L70.777,18.324 L45.535,27.749 L21.345,18.324 L45.535,8.899 ZM66.948,36.108 L45.532,44.189 L24.965,36.142 L24.965,27.760 L45.479,35.752 L66.948,27.735 L66.948,36.108 ZM84.753,59.431 L81.005,59.431 L81.005,51.290 C81.005,50.259 81.845,49.421 82.879,49.421 C83.913,49.421 84.753,50.259 84.753,51.290 L84.753,59.431 Z"/>
	</symbol>

	<symbol viewBox="0 0 87 82" xmlns="http://www.w3.org/2000/svg" shape-rendering="geometricPrecision" fill-rule="evenodd" clip-rule="evenodd" id="star">
		<path fill-rule="nonzero" d="M69.909,81.417 L43.485,67.577 L17.059,81.417 L22.106,52.104 L0.730,31.343 L30.272,27.067 L43.485,0.396 L56.697,27.067 L86.239,31.343 L64.863,52.104 L69.909,81.417 ZM16.795,36.544 L30.140,49.503 L26.989,67.801 L43.485,59.162 L59.980,67.801 L56.829,49.503 L70.174,36.544 L51.733,33.874 L43.485,17.225 L35.236,33.874 L16.795,36.544 Z"/>
	</symbol>

	<symbol viewBox="0 0 60 60" xmlns="http://www.w3.org/2000/svg" shape-rendering="geometricPrecision" fill-rule="evenodd" clip-rule="evenodd" id="pencil">
		<path fill-rule="nonzero" d="M57.512,6.992 L53.023,2.505 C51.417,0.898 49.282,0.014 47.009,0.014 C44.737,0.014 42.601,0.898 40.995,2.505 L5.884,37.593 L-0.014,60.002 L22.404,54.104 L57.512,19.015 C59.120,17.410 60.004,15.273 60.004,13.003 C60.004,10.732 59.120,8.596 57.512,6.992 ZM15.663,38.472 L36.979,17.169 L42.841,23.027 L21.524,44.330 L15.663,38.472 ZM11.688,45.149 L14.844,48.304 L10.560,49.431 L11.688,45.149 ZM52.184,13.689 L48.169,17.702 L42.307,11.844 L46.323,7.830 C46.703,7.454 47.315,7.454 47.695,7.830 L52.184,12.317 C52.563,12.694 52.563,13.311 52.184,13.689 Z"/>
	</symbol>

	<symbol viewBox="0 0 20 20" xmlns="http://www.w3.org/2000/svg" shape-rendering="geometricPrecision" fill-rule="evenodd" clip-rule="evenodd" id="messenger">
		<path fill-rule="nonzero" d="M10.000,-0.005 C4.473,-0.005 -0.008,4.140 -0.008,9.252 C-0.008,12.164 1.446,14.762 3.721,16.459 L3.721,19.990 L7.129,18.122 C8.038,18.373 9.002,18.509 10.000,18.509 C15.527,18.509 20.008,14.365 20.008,9.253 C20.008,4.140 15.527,-0.005 10.000,-0.005 ZM10.994,12.460 L8.446,9.746 L3.473,12.460 L8.944,6.660 L11.555,9.375 L16.465,6.660 L10.994,12.460 Z"/>
	</symbol>

	<symbol viewBox="0 0 19 19" xmlns="http://www.w3.org/2000/svg" shape-rendering="geometricPrecision" fill-rule="evenodd" clip-rule="evenodd" id="skype">
		<path fill-rule="nonzero" d="M18.010,11.353 C18.142,10.718 18.208,10.099 18.208,9.497 C18.208,8.318 17.980,7.191 17.522,6.114 C17.064,5.037 16.446,4.110 15.666,3.330 C14.887,2.551 13.960,1.932 12.883,1.475 C11.807,1.018 10.680,0.789 9.500,0.789 C8.898,0.789 8.279,0.854 7.645,0.986 C6.787,0.327 5.822,-0.003 4.749,-0.003 C3.439,-0.003 2.319,0.462 1.391,1.388 C0.464,2.317 -0.000,3.436 -0.000,4.747 C-0.000,5.819 0.329,6.784 0.989,7.642 C0.857,8.276 0.791,8.895 0.791,9.497 C0.791,10.677 1.020,11.804 1.478,12.881 C1.935,13.957 2.554,14.884 3.333,15.663 C4.113,16.443 5.040,17.062 6.117,17.519 C7.193,17.978 8.321,18.205 9.500,18.205 C10.102,18.205 10.720,18.140 11.356,18.008 C12.213,18.667 13.178,18.998 14.250,18.998 C15.562,18.998 16.681,18.533 17.608,17.606 C18.536,16.678 19.000,15.559 19.000,14.247 C19.000,13.175 18.670,12.210 18.010,11.353 L18.010,11.353 ZM14.101,13.190 C13.829,13.672 13.464,14.058 13.007,14.346 C12.549,14.635 12.044,14.855 11.492,15.008 C10.939,15.160 10.362,15.237 9.760,15.237 C8.366,15.237 7.166,14.967 6.160,14.427 C5.154,13.887 4.651,13.237 4.651,12.479 C4.651,12.107 4.756,11.798 4.966,11.550 C5.176,11.303 5.488,11.180 5.900,11.180 C6.140,11.180 6.362,11.246 6.568,11.377 C6.774,11.509 6.964,11.668 7.137,11.854 C7.310,12.040 7.498,12.225 7.700,12.410 C7.902,12.596 8.170,12.755 8.504,12.887 C8.838,13.019 9.216,13.085 9.636,13.085 C10.172,13.085 10.605,12.979 10.935,12.770 C11.265,12.559 11.430,12.293 11.430,11.971 C11.430,11.641 11.298,11.395 11.034,11.229 C10.853,11.114 10.391,10.965 9.648,10.784 L7.842,10.338 C7.348,10.223 6.923,10.089 6.568,9.936 C6.214,9.784 5.884,9.585 5.578,9.337 C5.274,9.089 5.042,8.779 4.886,8.403 C4.730,8.027 4.651,7.589 4.651,7.086 C4.651,6.483 4.789,5.954 5.065,5.496 C5.341,5.038 5.709,4.679 6.166,4.419 C6.624,4.160 7.117,3.966 7.645,3.838 C8.172,3.710 8.717,3.647 9.277,3.647 C10.069,3.647 10.819,3.742 11.529,3.931 C12.238,4.120 12.823,4.399 13.285,4.766 C13.747,5.133 13.978,5.543 13.978,5.997 C13.978,6.368 13.860,6.685 13.625,6.949 C13.390,7.212 13.079,7.345 12.691,7.345 C12.477,7.345 12.279,7.296 12.098,7.196 C11.916,7.098 11.752,6.978 11.603,6.838 C11.454,6.697 11.297,6.560 11.133,6.423 C10.967,6.287 10.745,6.169 10.465,6.071 C10.184,5.972 9.867,5.923 9.512,5.923 C8.325,5.923 7.731,6.240 7.731,6.874 C7.731,7.015 7.762,7.138 7.824,7.246 C7.885,7.353 7.954,7.439 8.028,7.506 C8.102,7.572 8.226,7.638 8.399,7.703 C8.572,7.770 8.717,7.817 8.832,7.845 C8.947,7.875 9.129,7.917 9.376,7.976 L10.663,8.273 C11.066,8.363 11.428,8.458 11.745,8.557 C12.063,8.656 12.403,8.796 12.766,8.978 C13.128,9.159 13.429,9.361 13.669,9.583 C13.908,9.806 14.108,10.089 14.269,10.431 C14.430,10.773 14.510,11.151 14.510,11.563 C14.510,12.165 14.374,12.707 14.101,13.190 L14.101,13.190 Z"/>
	</symbol>

	<symbol viewBox="0 0 20 17" xmlns="http://www.w3.org/2000/svg" shape-rendering="geometricPrecision" fill-rule="evenodd" clip-rule="evenodd" id="telegram">
		<path fill-rule="nonzero" d="M0.333,8.150 L4.951,9.830 L6.739,15.430 C6.853,15.789 7.304,15.921 7.603,15.684 L10.177,13.639 C10.447,13.425 10.831,13.414 11.113,13.613 L15.756,16.897 C16.076,17.124 16.529,16.954 16.609,16.577 L20.011,0.639 C20.098,0.229 19.683,-0.115 19.281,0.037 L0.328,7.159 C-0.140,7.334 -0.136,7.980 0.333,8.150 L0.333,8.150 ZM6.451,8.936 L15.477,3.521 C15.639,3.424 15.806,3.637 15.667,3.764 L8.217,10.508 C7.956,10.746 7.787,11.064 7.739,11.408 L7.485,13.240 C7.452,13.485 7.099,13.509 7.030,13.272 L6.054,9.932 C5.942,9.551 6.105,9.144 6.451,8.936 L6.451,8.936 Z"/>
	</symbol>

	<symbol viewBox="0 0 19 20" xmlns="http://www.w3.org/2000/svg" shape-rendering="geometricPrecision" fill-rule="evenodd" clip-rule="evenodd" id="viber">
		<path fill-rule="nonzero" d="M18.573,4.807 L18.568,4.783 C18.109,2.896 16.043,0.871 14.145,0.450 L14.124,0.446 C11.055,-0.151 7.942,-0.151 4.873,0.446 L4.852,0.450 C2.954,0.871 0.888,2.896 0.429,4.783 L0.424,4.807 C-0.143,7.443 -0.143,10.115 0.424,12.751 L0.429,12.774 C0.868,14.580 2.781,16.512 4.608,17.044 L4.608,19.151 C4.608,19.913 5.520,20.288 6.039,19.737 L8.135,17.518 C8.589,17.544 9.044,17.559 9.499,17.559 C11.044,17.559 12.590,17.410 14.124,17.112 L14.145,17.108 C16.043,16.687 18.109,14.661 18.568,12.774 L18.573,12.751 C19.140,10.115 19.140,7.443 18.573,4.807 ZM13.837,12.546 C13.587,13.085 13.225,13.534 12.701,13.820 C12.554,13.901 12.377,13.927 12.211,13.979 C12.019,13.920 11.836,13.880 11.667,13.808 C9.909,13.066 8.291,12.108 7.010,10.639 C6.281,9.803 5.711,8.861 5.229,7.863 C5.000,7.390 4.808,6.897 4.611,6.409 C4.432,5.963 4.696,5.503 4.974,5.167 C5.234,4.853 5.570,4.611 5.933,4.433 C6.216,4.295 6.496,4.375 6.703,4.620 C7.150,5.149 7.561,5.705 7.894,6.318 C8.099,6.695 8.043,7.156 7.672,7.413 C7.582,7.476 7.499,7.549 7.415,7.619 C7.342,7.681 7.273,7.743 7.222,7.827 C7.130,7.980 7.125,8.160 7.185,8.327 C7.642,9.608 8.413,10.603 9.679,11.140 C9.881,11.224 10.085,11.325 10.318,11.297 C10.709,11.251 10.835,10.814 11.109,10.586 C11.376,10.364 11.718,10.360 12.007,10.547 C12.295,10.732 12.574,10.932 12.852,11.133 C13.125,11.331 13.396,11.525 13.648,11.750 C13.890,11.967 13.973,12.252 13.837,12.546 ZM11.567,8.374 C11.458,8.376 11.501,8.373 11.543,8.372 C11.367,8.366 11.271,8.260 11.252,8.089 C11.238,7.964 11.228,7.837 11.198,7.715 C11.140,7.475 11.015,7.253 10.817,7.105 C10.723,7.036 10.618,6.985 10.506,6.953 C10.365,6.911 10.219,6.923 10.078,6.887 C9.925,6.850 9.841,6.723 9.865,6.577 C9.886,6.445 10.013,6.341 10.156,6.352 C11.047,6.417 11.685,6.886 11.775,7.955 C11.782,8.030 11.789,8.110 11.773,8.182 C11.746,8.299 11.664,8.361 11.581,8.371 C11.587,8.371 11.586,8.372 11.567,8.374 ZM11.013,5.929 C10.739,5.793 10.444,5.708 10.144,5.657 C10.013,5.636 9.881,5.622 9.749,5.603 C9.589,5.581 9.504,5.477 9.512,5.317 C9.519,5.167 9.626,5.059 9.787,5.068 C10.314,5.098 10.824,5.215 11.293,5.468 C12.247,5.983 12.792,6.795 12.951,7.879 C12.958,7.928 12.970,7.976 12.974,8.026 C12.982,8.148 12.988,8.270 12.997,8.430 C12.993,8.459 12.991,8.528 12.975,8.593 C12.914,8.829 12.564,8.857 12.483,8.620 C12.459,8.549 12.456,8.470 12.455,8.394 C12.455,7.898 12.349,7.402 12.104,6.971 C11.851,6.528 11.465,6.155 11.013,5.929 ZM13.960,9.280 C13.776,9.282 13.693,9.126 13.681,8.957 C13.658,8.625 13.641,8.289 13.596,7.959 C13.358,6.215 11.992,4.772 10.288,4.462 C10.031,4.416 9.769,4.403 9.509,4.375 C9.345,4.358 9.129,4.348 9.093,4.139 C9.063,3.965 9.207,3.827 9.370,3.818 C9.415,3.816 9.459,3.817 9.503,3.817 C11.711,3.881 9.638,3.822 9.509,3.818 C11.806,3.886 13.691,5.439 14.095,7.752 C14.165,8.146 14.189,8.549 14.220,8.950 C14.232,9.118 14.139,9.279 13.960,9.280 Z"/>
	</symbol>

	<symbol viewBox="0 0 21 21" xmlns="http://www.w3.org/2000/svg" shape-rendering="geometricPrecision" fill-rule="evenodd" clip-rule="evenodd" id="close">
		<path fill-rule="nonzero" d="M20.4,17 L16.864,20.4 L10.5,14.035 L4.136,20.4 L0.6,17 L7,10.5 L0.6,4.136 L4.136,0.6 L10.5,7 L16.864,0.6 L20.4,4.136 L14.036,10.5 L20.4,17 Z"/>
	</symbol>
</svg>