<svg version="1.1"
	 xmlns="http://www.w3.org/2000/svg" xmlns:xlink="http://www.w3.org/1999/xlink" viewBox="0 0 212.72 60.52"
	 style="enable-background:new 0 0 212.72 60.52;" xml:space="preserve">
	<style type="text/css">
		.st0{fill:#ffffff;}
		.st1{fill:#ffffff;}
	</style>
	<path class="st0" d="M28.64,18.3c0,0.23-0.12,0.42-0.35,0.57c-0.23,0.15-0.49,0.26-0.77,0.32c-0.28,0.07-0.56,0.12-0.82,0.15
		c-0.27,0.03-0.43,0.05-0.5,0.05c-0.7,0-1.39-0.2-2.07-0.6c-0.68-0.4-1.31-1.03-1.87-1.9c-0.07-0.1-0.17-0.23-0.3-0.4
		c-0.13-0.17-0.2-0.28-0.2-0.35c0-0.17,0.13-0.32,0.37-0.45c0.25-0.13,0.53-0.27,0.85-0.4c0.32-0.13,0.62-0.23,0.9-0.3
		c0.28-0.07,0.47-0.1,0.57-0.1c0.67,0,1.32,0.17,1.97,0.5c0.65,0.33,1.17,0.95,1.57,1.85c0.07,0.1,0.19,0.27,0.37,0.52
		C28.55,18.02,28.64,18.2,28.64,18.3z M33.74,33.43c-0.1,0.8-0.28,1.63-0.55,2.5c-0.27,0.87-0.64,1.67-1.12,2.42
		c-0.48,0.75-1.09,1.37-1.82,1.85c-0.73,0.48-1.63,0.72-2.7,0.72c-0.83,0-1.68-0.28-2.55-0.85c-0.87-0.6-1.46-1.38-1.77-2.35
		c-0.32-0.96-0.47-1.9-0.47-2.8c0-0.27,0.02-0.67,0.05-1.2c0.03-0.53,0.05-1.18,0.05-1.95v-5.5c0-0.27-0.01-0.55-0.02-0.85
		c-0.02-0.3-0.06-0.58-0.13-0.85c-0.03-0.13-0.09-0.28-0.17-0.45c-0.08-0.17-0.13-0.28-0.13-0.35c0-0.13,0.08-0.24,0.25-0.32
		c0.17-0.08,0.35-0.14,0.55-0.17c0.2-0.03,0.48-0.05,0.85-0.05c0.1,0,0.33,0.01,0.7,0.02c0.37,0.02,0.75,0.08,1.15,0.17
		c0.4,0.1,0.76,0.26,1.07,0.47c0.32,0.22,0.47,0.52,0.47,0.92c0.03,0.1-0.03,0.28-0.18,0.55c-0.15,0.27-0.29,0.73-0.42,1.4
		c-0.03,0.27-0.07,0.51-0.1,0.72c-0.03,0.22-0.07,0.46-0.1,0.72c-0.03,0.27-0.07,0.59-0.1,0.97c-0.03,0.38-0.07,0.87-0.1,1.47v3
		c0,0.53,0.02,1.07,0.05,1.62c0.03,0.55,0.11,1.05,0.22,1.5c0.12,0.45,0.31,0.82,0.57,1.1c0.27,0.28,0.62,0.42,1.05,0.42
		c0.63,0,1.13-0.18,1.5-0.55c0.37-0.37,0.65-0.68,0.85-0.95c0.37-0.5,0.65-1.12,0.85-1.87c0.2-0.75,0.38-1.52,0.55-2.32l0.1-0.5
		c0.1-0.5,0.4-0.75,0.9-0.75s0.75,0.35,0.75,1.05v0.25L33.74,33.43z"/>
	<path class="st0" d="M39.93,30.54c-0.5,0.7-0.91,1.47-1.22,2.32c-0.32,0.85-0.59,1.73-0.82,2.65c-0.23,0.92-0.42,1.83-0.57,2.75
		c-0.15,0.92-0.31,1.79-0.47,2.62c-0.07,0.2-0.33,0.33-0.77,0.4c-0.45,0.07-0.77,0.1-0.97,0.1c-0.6,0-1.09-0.03-1.47-0.1
		c-0.38-0.07-0.67-0.22-0.87-0.47c-0.2-0.25-0.35-0.63-0.45-1.15c-0.1-0.52-0.18-1.21-0.25-2.07l0.65-14.84
		c0-0.43,0.23-0.65,0.7-0.65c0.17,0,0.4,0.02,0.7,0.07c0.3,0.05,0.62,0.13,0.95,0.23c0.33,0.1,0.62,0.22,0.85,0.37
		c0.23,0.15,0.35,0.32,0.35,0.52v10.14c0.03-0.03,0.08-0.17,0.15-0.4c0.23-0.6,0.52-1.34,0.85-2.22c0.33-0.88,0.7-1.72,1.1-2.52
		c0.4-0.8,0.82-1.48,1.27-2.05c0.45-0.57,0.91-0.85,1.37-0.85c0.6,0,1.06,0.14,1.37,0.42c0.32,0.28,0.56,0.64,0.72,1.07
		c0.17,0.43,0.27,0.9,0.3,1.4c0.03,0.5,0.05,0.98,0.05,1.45c0,0.33-0.03,0.88-0.1,1.65c-0.07,0.77-0.1,1.92-0.1,3.45
		c0,0.87,0.08,1.65,0.25,2.35c0.17,0.7,0.5,1.05,1,1.05c0.37,0,0.7-0.17,1-0.5c0.3-0.33,0.57-0.75,0.82-1.25
		c0.25-0.5,0.46-1.03,0.62-1.6c0.17-0.57,0.27-1.1,0.3-1.6c0.03-0.63,0.28-0.95,0.75-0.95c0.3,0,0.5,0.1,0.6,0.3s0.15,0.43,0.15,0.7
		v0.1c-0.03,0.67-0.16,1.42-0.37,2.25c-0.22,0.83-0.53,1.62-0.95,2.35c-0.42,0.73-0.96,1.35-1.62,1.85
		c-0.67,0.5-1.48,0.75-2.45,0.75c-1.5,0-2.46-0.54-2.87-1.62c-0.42-1.08-0.62-2.69-0.62-4.82L39.93,30.54z"/>
	<path class="st0" d="M59.41,38.33c0,0.8-0.27,1.42-0.8,1.85c-0.53,0.43-1.14,0.75-1.82,0.95c-0.68,0.2-1.37,0.33-2.05,0.37
		c-0.68,0.05-1.17,0.08-1.47,0.08c-0.47,0-1.04-0.05-1.72-0.15c-0.68-0.1-1.35-0.26-2-0.47s-1.2-0.52-1.65-0.92
		c-0.45-0.4-0.67-0.9-0.67-1.5c0-0.37,0.14-0.62,0.42-0.77c0.28-0.15,0.56-0.22,0.82-0.22c0.37,0,0.72,0.13,1.07,0.4
		s0.72,0.55,1.1,0.85c0.38,0.3,0.81,0.58,1.27,0.85c0.47,0.27,1,0.4,1.6,0.4c0.27,0,0.62-0.09,1.07-0.28
		c0.45-0.18,0.67-0.51,0.67-0.97c0-0.46-0.19-0.92-0.57-1.35c-0.38-0.43-0.87-0.88-1.45-1.35c-0.58-0.47-1.21-0.95-1.87-1.45
		c-0.67-0.5-1.29-1.04-1.87-1.62c-0.58-0.58-1.07-1.22-1.45-1.92c-0.38-0.7-0.57-1.46-0.57-2.3c0-1.17,0.37-2.15,1.12-2.95
		c0.75-0.8,1.63-1.43,2.65-1.9c1.02-0.47,2.06-0.8,3.12-1c1.07-0.2,1.9-0.3,2.5-0.3c0.57,0,1.13,0.12,1.7,0.35
		c0.57,0.23,0.85,0.68,0.85,1.35c0,0.2-0.04,0.49-0.13,0.87c-0.08,0.38-0.22,0.76-0.4,1.12c-0.18,0.37-0.42,0.69-0.72,0.97
		c-0.3,0.28-0.68,0.42-1.15,0.42c-0.13,0-0.27-0.06-0.4-0.17c-0.13-0.12-0.28-0.25-0.45-0.4c-0.17-0.15-0.34-0.28-0.52-0.4
		c-0.18-0.12-0.39-0.17-0.62-0.17c-1.17,0-1.98,0.34-2.45,1.02c-0.47,0.68-0.7,1.41-0.7,2.17c0,0.67,0.39,1.37,1.17,2.1
		c0.78,0.73,1.65,1.47,2.6,2.2c0.95,0.73,1.81,1.46,2.6,2.17C59.02,36.97,59.41,37.66,59.41,38.33z"/>
	<path class="st0" d="M60.51,32.38c0.03-1.7,0.08-3.43,0.15-5.2c0.07-1.77,0.13-3.4,0.2-4.9c0-0.27-0.27-0.45-0.8-0.55
		c-0.53-0.1-1.13-0.2-1.8-0.3c-0.67-0.1-1.26-0.26-1.8-0.47c-0.53-0.22-0.8-0.57-0.8-1.07c0-0.43,0.43-0.68,1.3-0.75
		c0.87-0.07,2.15-0.1,3.85-0.1c0.13,0,0.23-0.2,0.28-0.6c0.05-0.4,0.08-0.91,0.1-1.52c0.02-0.62,0.03-1.27,0.05-1.97
		s0.04-1.36,0.08-1.97c0.03-0.62,0.09-1.12,0.17-1.52c0.08-0.4,0.19-0.6,0.33-0.6c0.17,0,0.47,0.03,0.9,0.1
		c0.43,0.07,0.88,0.16,1.35,0.27c0.47,0.12,0.87,0.26,1.22,0.42c0.35,0.17,0.52,0.35,0.52,0.55l-0.55,6.49
		c0,0.2,0.17,0.34,0.53,0.42c0.35,0.08,0.8,0.13,1.35,0.15c0.55,0.02,1.13,0.02,1.75,0.02s1.2,0.05,1.75,0.15
		c0.55,0.1,1,0.26,1.35,0.47c0.35,0.22,0.52,0.54,0.52,0.97c0,0.07-0.03,0.17-0.1,0.32c-0.07,0.15-0.15,0.23-0.25,0.23
		c-0.07,0-0.16-0.05-0.27-0.15c-0.12-0.1-0.42-0.15-0.92-0.15c-0.13,0-0.5,0.02-1.1,0.05c-0.6,0.03-1.23,0.08-1.9,0.15
		c-0.67,0.07-1.27,0.14-1.82,0.23c-0.55,0.08-0.86,0.19-0.92,0.32c-0.03,0.07-0.07,0.46-0.13,1.17c-0.05,0.72-0.1,1.66-0.15,2.82
		c-0.05,1.17-0.09,2.51-0.13,4.02c-0.03,1.52-0.05,3.11-0.05,4.77c0,0.63,0.03,1.25,0.1,1.85c0.07,0.6,0.17,1.14,0.3,1.62
		c0.13,0.48,0.31,0.87,0.52,1.17c0.22,0.3,0.47,0.45,0.77,0.45c0.43,0,0.83-0.18,1.2-0.55c0.37-0.37,0.7-0.87,1-1.5
		c0.3-0.63,0.57-1.35,0.8-2.15c0.23-0.8,0.43-1.61,0.6-2.45c0.1-0.5,0.22-0.86,0.35-1.07c0.13-0.22,0.33-0.32,0.6-0.32
		c0.23,0,0.44,0.08,0.63,0.23c0.18,0.15,0.27,0.49,0.27,1.02c0,0.33-0.02,0.55-0.05,0.65c-0.1,0.6-0.29,1.42-0.57,2.47
		c-0.28,1.05-0.67,2.08-1.15,3.1c-0.48,1.02-1.07,1.91-1.77,2.67s-1.52,1.15-2.45,1.15c-0.9,0-1.68-0.26-2.35-0.77
		c-0.67-0.52-1.22-1.23-1.67-2.15c-0.45-0.92-0.79-2-1.02-3.25c-0.23-1.25-0.35-2.59-0.35-4.02V32.38z"/>
	<path class="st0" d="M90.14,35.98c-0.07,0.47-0.23,1.02-0.5,1.65s-0.61,1.24-1.02,1.82c-0.42,0.58-0.9,1.07-1.45,1.47
		c-0.55,0.4-1.16,0.6-1.82,0.6c-1,0-1.87-0.38-2.62-1.15c-0.75-0.77-1.21-1.85-1.37-3.25c-0.2,0.53-0.43,1.15-0.7,1.85
		c-0.27,0.7-0.6,1.35-1,1.95s-0.86,1.11-1.37,1.52s-1.12,0.63-1.82,0.63c-0.2,0-0.35-0.02-0.45-0.05c-0.1-0.03-0.21-0.08-0.33-0.13
		c-0.12-0.05-0.25-0.09-0.4-0.13c-0.15-0.03-0.36-0.05-0.62-0.05c-0.8,0-1.47-0.26-2.02-0.77c-0.55-0.52-0.99-1.17-1.32-1.97
		c-0.33-0.8-0.57-1.67-0.72-2.62c-0.15-0.95-0.22-1.84-0.22-2.67c0-2,0.11-3.9,0.33-5.7c0.22-1.8,0.57-3.39,1.07-4.77
		c0.5-1.38,1.15-2.48,1.95-3.3c0.8-0.82,1.76-1.22,2.9-1.22c0.67,0,1.17,0.06,1.52,0.17c0.35,0.12,0.67,0.25,0.97,0.4
		s0.63,0.31,0.97,0.47c0.35,0.17,0.84,0.3,1.47,0.4c0.7,0.4,1.19,0.87,1.47,1.42c0.28,0.55,0.47,1.14,0.55,1.77
		c0.08,0.63,0.11,1.29,0.08,1.97c-0.03,0.68,0,1.36,0.1,2.02c0,0.03,0.08,0.08,0.22,0.15c0.15,0.07,0.33,0.14,0.52,0.22
		c0.2,0.08,0.38,0.2,0.52,0.35c0.15,0.15,0.23,0.34,0.23,0.57v0.2c-0.33,0.87-0.53,1.63-0.6,2.3c-0.07,0.67-0.1,1.47-0.1,2.4
		c0,0.47,0.02,0.97,0.07,1.52c0.05,0.55,0.13,1.07,0.25,1.55c0.12,0.48,0.29,0.88,0.52,1.2c0.23,0.32,0.53,0.47,0.9,0.47
		c0.4,0,0.76-0.2,1.07-0.6c0.32-0.4,0.58-0.86,0.8-1.37c0.22-0.52,0.4-1.04,0.55-1.57c0.15-0.53,0.24-0.93,0.27-1.2
		c0.07-0.4,0.23-0.6,0.5-0.6c0.17,0,0.33,0.09,0.47,0.27c0.15,0.18,0.22,0.51,0.22,0.97c0,0.13,0,0.26,0,0.37
		C90.19,35.67,90.17,35.81,90.14,35.98z M80.9,27.89c0-0.37-0.03-0.8-0.1-1.3c-0.07-0.5-0.18-0.97-0.35-1.4
		c-0.17-0.43-0.42-0.8-0.75-1.1s-0.78-0.45-1.35-0.45c-0.93,0-1.69,0.42-2.27,1.27c-0.58,0.85-1.04,1.85-1.37,3
		c-0.33,1.15-0.55,2.33-0.65,3.55c-0.1,1.22-0.15,2.17-0.15,2.87c0,0.53,0.03,1.17,0.08,1.92c0.05,0.75,0.14,1.46,0.27,2.12
		s0.33,1.23,0.58,1.7c0.25,0.47,0.57,0.7,0.97,0.7c0.97,0,1.71-0.37,2.22-1.12c0.52-0.75,0.91-1.68,1.17-2.8
		c0.27-1.12,0.46-2.31,0.57-3.6c0.12-1.28,0.22-2.46,0.33-3.52c0.07-0.57,0.22-0.92,0.45-1.07c0.23-0.15,0.35-0.26,0.35-0.32V27.89z
		"/>
	<path class="st0" d="M135.99,38.33c0,0.8-0.27,1.42-0.8,1.85c-0.53,0.43-1.14,0.75-1.82,0.95c-0.68,0.2-1.37,0.33-2.05,0.37
		c-0.68,0.05-1.17,0.08-1.47,0.08c-0.47,0-1.04-0.05-1.72-0.15c-0.68-0.1-1.35-0.26-2-0.47c-0.65-0.22-1.2-0.52-1.65-0.92
		c-0.45-0.4-0.67-0.9-0.67-1.5c0-0.37,0.14-0.62,0.42-0.77c0.28-0.15,0.56-0.22,0.82-0.22c0.37,0,0.72,0.13,1.07,0.4
		s0.72,0.55,1.1,0.85c0.38,0.3,0.81,0.58,1.27,0.85c0.47,0.27,1,0.4,1.6,0.4c0.27,0,0.62-0.09,1.07-0.28
		c0.45-0.18,0.67-0.51,0.67-0.97c0-0.46-0.19-0.92-0.57-1.35c-0.38-0.43-0.87-0.88-1.45-1.35c-0.58-0.47-1.21-0.95-1.87-1.45
		c-0.67-0.5-1.29-1.04-1.87-1.62c-0.58-0.58-1.07-1.22-1.45-1.92c-0.38-0.7-0.57-1.46-0.57-2.3c0-1.17,0.37-2.15,1.12-2.95
		c0.75-0.8,1.63-1.43,2.65-1.9c1.02-0.47,2.06-0.8,3.12-1c1.07-0.2,1.9-0.3,2.5-0.3c0.57,0,1.13,0.12,1.7,0.35
		c0.57,0.23,0.85,0.68,0.85,1.35c0,0.2-0.04,0.49-0.13,0.87c-0.08,0.38-0.22,0.76-0.4,1.12c-0.18,0.37-0.42,0.69-0.72,0.97
		c-0.3,0.28-0.68,0.42-1.15,0.42c-0.13,0-0.27-0.06-0.4-0.17c-0.13-0.12-0.28-0.25-0.45-0.4c-0.17-0.15-0.34-0.28-0.52-0.4
		c-0.18-0.12-0.39-0.17-0.63-0.17c-1.17,0-1.98,0.34-2.45,1.02c-0.47,0.68-0.7,1.41-0.7,2.17c0,0.67,0.39,1.37,1.17,2.1
		c0.78,0.73,1.65,1.47,2.6,2.2c0.95,0.73,1.81,1.46,2.6,2.17C135.59,36.97,135.99,37.66,135.99,38.33z"/>
	<path class="st0" d="M152.42,36.93c-0.8,1.9-1.82,3.27-3.07,4.12c-1.25,0.85-2.72,1.27-4.42,1.27c-0.17,0-0.32,0-0.47,0
		s-0.31-0.02-0.47-0.05c-0.83-0.1-1.63-0.36-2.4-0.78s-1.43-1-2-1.75c-0.57-0.75-1.02-1.67-1.35-2.75s-0.5-2.33-0.5-3.73
		c0-1.33,0.17-2.74,0.52-4.21s1.06-2.8,2.12-4.01c0.93-1.07,2.02-1.92,3.27-2.55c1.25-0.63,2.52-0.95,3.82-0.95
		c0.63,0,1.21,0.09,1.72,0.28c0.52,0.19,0.81,0.42,0.87,0.69c0.07,0.37,0.11,0.84,0.13,1.4c0.02,0.56,0.02,1.29,0.02,2.19
		c0,0.77-0.06,1.33-0.17,1.7c-0.12,0.37-0.36,0.55-0.72,0.55c-0.4-0.03-0.68-0.24-0.85-0.62c-0.17-0.38-0.33-0.8-0.5-1.25
		c-0.17-0.45-0.38-0.87-0.65-1.25c-0.27-0.38-0.7-0.59-1.3-0.62c-0.87,0-1.58,0.33-2.15,1c-0.57,0.67-1.01,1.45-1.32,2.35
		c-0.32,0.9-0.53,1.8-0.65,2.7c-0.12,0.9-0.17,1.6-0.17,2.1c0,1.93,0.29,3.59,0.87,4.97s1.62,2.14,3.12,2.27l0.55,0.05
		c1.03,0,1.86-0.26,2.5-0.78c0.63-0.52,1.14-1.08,1.52-1.7c0.38-0.62,0.68-1.18,0.9-1.7c0.22-0.52,0.44-0.77,0.67-0.77h0.15
		c0.43,0.03,0.65,0.32,0.65,0.85C152.67,36.16,152.59,36.5,152.42,36.93z"/>
	<path class="st0" d="M172.21,34.33c-0.04,0.47-0.18,1.12-0.43,1.97c-0.25,0.85-0.62,1.68-1.1,2.5c-0.48,0.82-1.1,1.53-1.85,2.15
		s-1.66,0.92-2.72,0.92c-1.03,0-1.86-0.3-2.47-0.9c-0.62-0.6-1.08-1.42-1.4-2.47c-0.32-1.05-0.52-2.31-0.6-3.77
		c-0.08-1.47-0.13-3.06-0.13-4.8c0-0.3,0-0.67,0-1.12s0.02-0.84,0.05-1.17c-0.4,0.73-0.8,1.66-1.2,2.77
		c-0.4,1.12-0.76,2.31-1.07,3.57c-0.32,1.27-0.58,2.56-0.78,3.87c-0.2,1.32-0.32,2.56-0.35,3.72c-0.33,0.07-0.69,0.15-1.07,0.25
		c-0.38,0.1-0.82,0.15-1.32,0.15c-0.2,0-0.43-0.02-0.7-0.05c-0.27-0.03-0.53-0.1-0.8-0.2c-0.27-0.1-0.49-0.24-0.67-0.42
		c-0.18-0.18-0.28-0.42-0.28-0.72c0-0.07,0.06-0.22,0.17-0.45c0.12-0.23,0.17-0.7,0.17-1.4V10c0-0.47-0.06-0.78-0.17-0.95
		c-0.12-0.17-0.17-0.37-0.17-0.6c0-0.13,0.12-0.24,0.35-0.32c0.23-0.08,0.5-0.15,0.8-0.2c0.3-0.05,0.61-0.08,0.92-0.1
		c0.32-0.02,0.58-0.02,0.77-0.02c0.87,0,1.75,0.18,2.65,0.55c-0.17,0.9-0.33,2.09-0.47,3.57c-0.15,1.48-0.29,3.01-0.43,4.6
		c-0.13,1.58-0.23,3.1-0.3,4.55c-0.07,1.45-0.1,2.57-0.1,3.37c0,0.1,0,0.22,0,0.37s-0.01,0.53-0.02,1.15
		c-0.02,0.62-0.03,1.57-0.05,2.87s-0.04,3.13-0.07,5.5c0-0.03,0.07-0.35,0.22-0.95c0.15-0.6,0.34-1.35,0.57-2.25
		c0.23-0.9,0.51-1.86,0.82-2.9c0.32-1.03,0.65-1.99,1-2.87c0.35-0.88,0.71-1.61,1.07-2.2c0.37-0.58,0.71-0.87,1.05-0.87
		c0.37,0,0.87,0.08,1.52,0.22c0.65,0.15,1.06,0.41,1.22,0.77c0.13,0.4,0.27,0.68,0.42,0.85c0.15,0.17,0.28,0.3,0.4,0.4
		c0.12,0.1,0.21,0.2,0.3,0.3c0.08,0.1,0.13,0.25,0.13,0.45c-0.03,0.1-0.11,0.43-0.22,1c-0.12,0.57-0.23,1.27-0.35,2.12
		c-0.12,0.85-0.22,1.78-0.32,2.8c-0.1,1.02-0.15,2.02-0.15,3.02c0,1.33,0.12,2.48,0.35,3.45c0.23,0.97,0.68,1.45,1.35,1.45
		c0.66,0,1.21-0.2,1.65-0.6c0.43-0.4,0.79-0.9,1.07-1.5c0.28-0.6,0.5-1.24,0.65-1.92c0.15-0.68,0.28-1.29,0.38-1.82
		c0.17-0.7,0.42-1.05,0.75-1.05c0.37,0,0.62,0.13,0.77,0.4c0.15,0.27,0.22,0.62,0.22,1.05L172.21,34.33z"/>
	<path class="st0" d="M186.54,27.17c0.13-0.23,0.37-0.35,0.7-0.35c0.17,0,0.28,0.1,0.35,0.3c0.07,0.2,0.1,0.37,0.1,0.5
		c-0.03,1.03-0.26,1.95-0.67,2.77c-0.42,0.81-0.86,1.52-1.32,2.12c-0.27,0.37-0.56,0.7-0.88,1c-0.32,0.3-0.64,0.58-0.97,0.85
		c-0.03,0.56-0.06,0.96-0.08,1.17c-0.02,0.22-0.04,0.39-0.08,0.52c-0.07,0.5-0.23,1.13-0.5,1.89c-0.27,0.76-0.64,1.51-1.12,2.24
		c-0.48,0.73-1.07,1.36-1.75,1.87s-1.47,0.77-2.37,0.77c-0.3,0-0.64-0.03-1.02-0.1c-0.38-0.07-0.77-0.16-1.17-0.27
		c-0.4-0.12-0.78-0.25-1.15-0.4c-0.37-0.15-0.68-0.31-0.95-0.47c-0.83-0.46-1.52-1.01-2.05-1.64c-0.53-0.63-0.94-1.3-1.22-2.02
		c-0.28-0.71-0.47-1.45-0.57-2.19s-0.15-1.47-0.15-2.17c0-1.2,0.13-2.41,0.38-3.64c0.25-1.23,0.56-2.41,0.92-3.54
		c0.37-1.13,0.78-2.14,1.25-3.04c0.47-0.9,0.92-1.6,1.35-2.09c0.43-0.47,0.92-0.79,1.45-0.97c0.53-0.18,1.02-0.27,1.45-0.27
		c0.53,0,1.07,0.13,1.6,0.4c0.53,0.27,1.05,0.6,1.55,1c0.5,0.4,0.99,0.86,1.47,1.37c0.48,0.52,0.94,1.02,1.37,1.52
		c0.33,0.37,0.58,0.96,0.75,1.77c0.17,0.81,0.3,1.64,0.4,2.47c0.07,0.47,0.12,0.96,0.15,1.5c0.03,0.53,0.05,1.08,0.05,1.64
		c0.5-0.4,0.9-0.82,1.2-1.27c0.3-0.45,0.54-0.87,0.72-1.27c0.18-0.4,0.33-0.77,0.45-1.12C186.28,27.65,186.41,27.37,186.54,27.17z
		 M180.65,35.53c-0.4,0.27-0.95,0.47-1.65,0.6c-0.7,0.13-1.28,0.2-1.75,0.2c-0.9,0-1.59-0.07-2.07-0.2c-0.48-0.13-1.01-0.4-1.57-0.8
		l-0.05,1.05c0,0.37,0.05,0.75,0.15,1.15c0.1,0.4,0.26,0.77,0.47,1.1c0.22,0.33,0.52,0.61,0.92,0.83c0.4,0.22,0.9,0.32,1.5,0.32
		c0.73,0,1.36-0.14,1.87-0.42c0.52-0.28,0.93-0.64,1.25-1.07c0.32-0.43,0.55-0.9,0.7-1.4C180.57,36.38,180.65,35.93,180.65,35.53z
		 M180.87,30.54c-0.02-0.47-0.05-1.02-0.1-1.65c-0.05-0.63-0.13-1.29-0.25-1.97c-0.12-0.68-0.28-1.31-0.5-1.87
		c-0.22-0.57-0.49-1.04-0.82-1.42c-0.33-0.38-0.75-0.57-1.25-0.57c-0.5,0-0.98,0.2-1.45,0.6c-0.47,0.4-0.88,0.92-1.25,1.55
		c-0.37,0.63-0.66,1.35-0.87,2.15c-0.22,0.8-0.33,1.58-0.33,2.35c0,1.33,0.27,2.31,0.8,2.92c0.53,0.62,1.45,0.92,2.75,0.92
		c0.97,0,1.76-0.15,2.37-0.45s0.92-0.53,0.92-0.7v-0.95C180.9,31.3,180.89,31,180.87,30.54z"/>
	<path class="st0" d="M202.88,27.17c0.13-0.23,0.37-0.35,0.7-0.35c0.17,0,0.28,0.1,0.35,0.3c0.07,0.2,0.1,0.37,0.1,0.5
		c-0.03,1.03-0.26,1.95-0.67,2.77c-0.42,0.81-0.86,1.52-1.32,2.12c-0.27,0.37-0.56,0.7-0.88,1c-0.32,0.3-0.64,0.58-0.97,0.85
		c-0.03,0.56-0.06,0.96-0.08,1.17c-0.02,0.22-0.04,0.39-0.08,0.52c-0.07,0.5-0.23,1.13-0.5,1.89c-0.27,0.76-0.64,1.51-1.12,2.24
		c-0.48,0.73-1.07,1.36-1.75,1.87s-1.47,0.77-2.37,0.77c-0.3,0-0.64-0.03-1.02-0.1c-0.38-0.07-0.77-0.16-1.17-0.27
		c-0.4-0.12-0.78-0.25-1.15-0.4c-0.37-0.15-0.68-0.31-0.95-0.47c-0.83-0.46-1.52-1.01-2.05-1.64c-0.53-0.63-0.94-1.3-1.22-2.02
		c-0.28-0.71-0.47-1.45-0.57-2.19s-0.15-1.47-0.15-2.17c0-1.2,0.13-2.41,0.38-3.64c0.25-1.23,0.56-2.41,0.92-3.54
		c0.37-1.13,0.78-2.14,1.25-3.04c0.47-0.9,0.92-1.6,1.35-2.09c0.43-0.47,0.92-0.79,1.45-0.97c0.53-0.18,1.02-0.27,1.45-0.27
		c0.53,0,1.07,0.13,1.6,0.4c0.53,0.27,1.05,0.6,1.55,1c0.5,0.4,0.99,0.86,1.47,1.37c0.48,0.52,0.94,1.02,1.37,1.52
		c0.33,0.37,0.58,0.96,0.75,1.77c0.17,0.81,0.3,1.64,0.4,2.47c0.07,0.47,0.12,0.96,0.15,1.5c0.03,0.53,0.05,1.08,0.05,1.64
		c0.5-0.4,0.9-0.82,1.2-1.27c0.3-0.45,0.54-0.87,0.72-1.27c0.18-0.4,0.33-0.77,0.45-1.12C202.62,27.65,202.74,27.37,202.88,27.17z
		 M196.98,35.53c-0.4,0.27-0.95,0.47-1.65,0.6c-0.7,0.13-1.28,0.2-1.75,0.2c-0.9,0-1.59-0.07-2.07-0.2c-0.48-0.13-1.01-0.4-1.57-0.8
		l-0.05,1.05c0,0.37,0.05,0.75,0.15,1.15c0.1,0.4,0.26,0.77,0.47,1.1c0.22,0.33,0.52,0.61,0.92,0.83c0.4,0.22,0.9,0.32,1.5,0.32
		c0.73,0,1.36-0.14,1.87-0.42c0.52-0.28,0.93-0.64,1.25-1.07c0.32-0.43,0.55-0.9,0.7-1.4C196.91,36.38,196.98,35.93,196.98,35.53z
		 M197.21,30.54c-0.02-0.47-0.05-1.02-0.1-1.65c-0.05-0.63-0.13-1.29-0.25-1.97c-0.12-0.68-0.28-1.31-0.5-1.87
		c-0.22-0.57-0.49-1.04-0.82-1.42c-0.33-0.38-0.75-0.57-1.25-0.57c-0.5,0-0.98,0.2-1.45,0.6c-0.47,0.4-0.88,0.92-1.25,1.55
		c-0.37,0.63-0.66,1.35-0.87,2.15c-0.22,0.8-0.33,1.58-0.33,2.35c0,1.33,0.27,2.31,0.8,2.92c0.53,0.62,1.45,0.92,2.75,0.92
		c0.97,0,1.76-0.15,2.37-0.45s0.92-0.53,0.92-0.7v-0.95C197.23,31.3,197.22,31,197.21,30.54z"/>
	<path class="st0" d="M212.72,39.98c0,0.4-0.14,0.75-0.42,1.05c-0.28,0.3-0.63,0.57-1.05,0.8c-0.42,0.23-0.85,0.41-1.3,0.52
		c-0.45,0.12-0.82,0.18-1.12,0.18c-0.57,0-1.19-0.06-1.87-0.18s-1.26-0.36-1.72-0.72c-0.53-0.43-0.97-1.12-1.32-2.07
		s-0.62-2.08-0.8-3.4c-0.18-1.32-0.31-2.78-0.37-4.4c-0.07-1.61-0.1-3.3-0.1-5.07c0-0.73,0.03-1.55,0.08-2.45
		c0.05-0.9,0.11-1.84,0.17-2.82c0.07-0.98,0.15-1.96,0.25-2.95c0.1-0.98,0.2-1.92,0.3-2.82c0.1-0.63,0.22-1.31,0.35-2.05
		c0.13-0.73,0.27-1.43,0.42-2.1c0.15-0.67,0.32-1.27,0.52-1.8c0.2-0.53,0.42-0.92,0.65-1.15c0.27-0.27,0.62-0.44,1.07-0.52
		c0.45-0.08,0.86-0.13,1.22-0.13c0.77,0,1.38,0.2,1.85,0.6c0.47,0.4,0.82,0.94,1.07,1.62c0.25,0.68,0.42,1.47,0.5,2.35
		c0.08,0.88,0.13,1.82,0.13,2.82c0,1.53-0.05,3.19-0.15,4.97c-0.1,1.78-0.31,3.57-0.63,5.37s-0.77,3.55-1.35,5.25
		c-0.58,1.7-1.36,3.25-2.32,4.65c0.03,0.47,0.09,1.01,0.17,1.62c0.08,0.62,0.21,1.19,0.38,1.72c0.17,0.53,0.38,0.98,0.65,1.35
		c0.27,0.37,0.62,0.55,1.05,0.55c0.4,0,0.72-0.09,0.95-0.27s0.44-0.39,0.63-0.63c0.18-0.23,0.37-0.44,0.55-0.63
		c0.18-0.18,0.42-0.27,0.72-0.27c0.33,0,0.56,0.1,0.67,0.3C212.66,39.48,212.72,39.71,212.72,39.98z M208.97,16.5
		c0-0.33-0.01-0.73-0.02-1.2c-0.02-0.47-0.07-0.92-0.15-1.37c-0.08-0.45-0.19-0.83-0.32-1.15c-0.13-0.32-0.32-0.47-0.55-0.47
		c-0.33,0-0.6,0.47-0.8,1.4c-0.2,0.93-0.36,2.16-0.47,3.67c-0.12,1.52-0.2,3.23-0.25,5.15c-0.05,1.92-0.08,3.86-0.08,5.82
		c0,0.57,0,1.16,0,1.77c0,0.62,0.03,1.16,0.1,1.62c1.1-2.63,1.8-5.18,2.1-7.64C208.82,21.63,208.97,19.09,208.97,16.5z"/>
	<path class="st0" d="M0,9.52V51c0.01,5.25,4.26,9.51,9.52,9.52h101.97c5.25-0.01,9.51-4.26,9.52-9.52V9.52
		c-0.01-5.25-4.26-9.51-9.52-9.52H9.52C4.26,0.01,0.01,4.26,0,9.52L0,9.52z M3.81,20.01l3.81,1.9V38.6l-3.81,1.9V20.01z
		 M111.48,3.81c3.15,0,5.71,2.56,5.71,5.71V51c0,3.15-2.56,5.71-5.71,5.71H9.52c-3.15,0-5.71-2.56-5.71-5.71v-6.24l6.56-3.28
		c0.64-0.32,1.05-0.98,1.05-1.7V20.74c0-0.72-0.41-1.38-1.05-1.7l-6.56-3.28V9.52c0-3.15,2.56-5.71,5.71-5.71H111.48z M111.48,3.81"
		/>
	<circle class="st1" cx="103" cy="30.87" r="5"/>
	<path class="st0" d="M103,40.37c-5.24,0-9.5-4.26-9.5-9.5s4.26-9.5,9.5-9.5s9.5,4.26,9.5,9.5S108.24,40.37,103,40.37z M103,23.37
			c-4.14,0-7.5,3.36-7.5,7.5s3.36,7.5,7.5,7.5s7.5-3.36,7.5-7.5S107.14,23.37,103,23.37z"/>
</svg>
